<svg width="65" height="50" viewBox="0 0 65 50" fill="none" xmlns="http://www.w3.org/2000/svg">
<path fill-rule="evenodd" clip-rule="evenodd" d="M39.5559 9.37877C40.9847 9.37877 42.1399 8.21325 42.1399 6.77949C42.1399 5.34573 40.9847 4.1802 39.5559 4.1802C38.127 4.1802 36.9719 5.34573 36.9719 6.77949C36.9719 8.21325 38.127 9.37877 39.5559 9.37877ZM39.5559 10.4809C41.5866 10.4809 43.2328 8.82369 43.2328 6.77949C43.2328 4.73528 41.5866 3.07812 39.5559 3.07812C37.5251 3.07812 35.8789 4.73528 35.8789 6.77949C35.8789 8.82369 37.5251 10.4809 39.5559 10.4809Z" fill="white"/>
<path d="M31.9037 6.77949C31.9037 8.8237 30.2575 10.4809 28.2268 10.4809C26.196 10.4809 24.5498 8.8237 24.5498 6.77949C24.5498 4.73529 26.196 3.07812 28.2268 3.07812C30.2575 3.07812 31.9037 4.73529 31.9037 6.77949Z" fill="#0247A9"/>
<path d="M54.5609 6.77949C54.5609 8.8237 52.9147 10.4809 50.884 10.4809C48.8533 10.4809 47.207 8.8237 47.207 6.77949C47.207 4.73529 48.8533 3.07812 50.884 3.07812C52.9147 3.07812 54.5609 4.73529 54.5609 6.77949Z" fill="#DE1616"/>
<path d="M6.87939 16.082L12.0166 28.5595L16.5284 16.082H23.3631L13.0328 38.1991H9.97238L0 16.082H6.87939Z" fill="white"/>
<path d="M31.4161 16.082V38.1991H25.1621V16.082H31.4161Z" fill="white"/>
<path d="M42.7149 16.082V50.0009H36.4609V16.082H42.7149Z" fill="white"/>
<path d="M54.0138 16.082V38.1991H47.7598V16.082H54.0138Z" fill="white"/>
<path d="M65.0001 0V38.1982H58.7461V0H65.0001Z" fill="white"/>
</svg>
