<svg width="156" height="120" viewBox="0 0 156 120" fill="none" xmlns="http://www.w3.org/2000/svg">
<path d="M16.7198 38.9245L29.0071 68.5211L39.7987 38.9245H56.1462L31.9988 92.4547H24.3059L0.265381 38.9245H16.7198Z" fill="black"/>
<path d="M75.4086 38.9245V91.3862H60.4501V38.9245H75.4086ZM67.9294 8.04585C72.8443 8.04585 76.7977 12.106 76.7977 16.9141C76.7977 21.8291 72.8443 25.7824 67.9294 25.7824C63.0144 25.7824 59.0611 21.8291 59.0611 16.9141C59.0611 12.106 63.0144 8.04585 67.9294 8.04585Z" fill="black"/>
<path d="M102.433 38.9245V119.38H87.4748V38.9245H102.433ZM94.9541 8.04585C99.869 8.04585 103.822 12.106 103.822 16.9141C103.822 21.8291 99.869 25.7824 94.9541 25.7824C90.0391 25.7824 86.0858 21.8291 86.0858 16.9141C86.0858 12.106 90.0391 8.04585 94.9541 8.04585Z" fill="black"/>
<path d="M129.458 38.9245V91.3862H114.499V38.9245H129.458ZM121.979 8.04585C126.894 8.04585 130.847 12.106 130.847 16.9141C130.847 21.8291 126.894 25.7824 121.979 25.7824C117.064 25.7824 113.11 21.8291 113.11 16.9141C113.11 12.106 117.064 8.04585 121.979 8.04585Z" fill="black"/>
<path d="M155.735 0.780273V91.3862H140.776V0.780273H155.735Z" fill="black"/>
<path d="M76.7387 16.8595C76.7387 21.6909 72.822 25.6076 67.9906 25.6076C63.1591 25.6076 59.2424 21.6909 59.2424 16.8595C59.2424 12.028 63.1591 8.11133 67.9906 8.11133C72.822 8.11133 76.7387 12.028 76.7387 16.8595Z" fill="#0247A9"/>
<path d="M130.645 16.8595C130.645 21.6909 126.728 25.6076 121.897 25.6076C117.065 25.6076 113.148 21.6909 113.148 16.8595C113.148 12.028 117.065 8.11133 121.897 8.11133C126.728 8.11133 130.645 12.028 130.645 16.8595Z" fill="#DE1616"/>
<path d="M103.692 16.8595C103.692 21.6909 99.7754 25.6076 94.9439 25.6076C90.1125 25.6076 86.1958 21.6909 86.1958 16.8595C86.1958 12.028 90.1125 8.11133 94.9439 8.11133C99.7754 8.11133 103.692 12.028 103.692 16.8595Z" fill="white"/>
<path fill-rule="evenodd" clip-rule="evenodd" d="M94.9439 23.0147C98.3434 23.0147 101.099 20.2589 101.099 16.8595C101.099 13.46 98.3434 10.7042 94.9439 10.7042C91.5445 10.7042 88.7887 13.46 88.7887 16.8595C88.7887 20.2589 91.5445 23.0147 94.9439 23.0147ZM94.9439 25.6076C99.7754 25.6076 103.692 21.6909 103.692 16.8595C103.692 12.028 99.7754 8.11133 94.9439 8.11133C90.1125 8.11133 86.1958 12.028 86.1958 16.8595C86.1958 21.6909 90.1125 25.6076 94.9439 25.6076Z" fill="black"/>
</svg>
