<svg viewBox="0 0 700 450" xmlns="http://www.w3.org/2000/svg">
  <defs>
    <filter id="pencil" x="-20%" y="-20%" width="140%" height="140%">
      <feTurbulence type="fractalNoise" baseFrequency="0.04" numOctaves="5" result="noise"/>
      <feDisplacementMap in="SourceGraphic" in2="noise" scale="1.5" xChannelSelector="R" yChannelSelector="G"/>
    </filter>
  </defs>

  <style>
    .label-text {
      font-family: 'Segoe UI', system-ui, sans-serif;
      font-size: 13px;
      font-weight: 500;
    }
    .small-text {
      font-family: 'Segoe UI', system-ui, sans-serif;
      font-size: 10px;
      fill: #666;
    }
    .section-label {
      font-family: 'Segoe UI', system-ui, sans-serif;
      font-size: 11px;
      font-weight: 600;
      fill: #666;
    }
  </style>

  <!-- Customer Infrastructure Boundary -->
  <rect x="30" y="30" width="640" height="280" rx="12"
        fill="none" stroke="#666" stroke-width="2" stroke-dasharray="8,4" filter="url(#pencil)"/>
  <text x="50" y="55" class="section-label">YOUR INFRASTRUCTURE</text>

  <!-- Kubernetes Cluster -->
  <rect x="50" y="70" width="400" height="160" rx="8"
        fill="#f8fafc" stroke="#94a3b8" stroke-width="2" filter="url(#pencil)"/>
  <text x="70" y="95" class="section-label">KUBERNETES CLUSTER</text>

  <!-- Diamond -->
  <rect x="70" y="110" width="110" height="50" rx="18"
        fill="#DE1616" stroke="#DE1616" stroke-width="2" filter="url(#pencil)"/>
  <text x="125" y="140" text-anchor="middle" class="label-text" fill="white">Diamond</text>
  <text x="125" y="175" text-anchor="middle" class="small-text">Evaluation</text>

  <!-- Dome -->
  <rect x="200" y="110" width="110" height="50" rx="18"
        fill="#0247A9" stroke="#0247A9" stroke-width="2" filter="url(#pencil)"/>
  <text x="255" y="140" text-anchor="middle" class="label-text" fill="white">Dome</text>
  <text x="255" y="175" text-anchor="middle" class="small-text">Protection</text>

  <!-- Console -->
  <rect x="330" y="110" width="100" height="50" rx="18"
        fill="white" stroke="#0247A9" stroke-width="2" filter="url(#pencil)"/>
  <text x="380" y="140" text-anchor="middle" class="label-text" fill="#0247A9">Console</text>
  <text x="380" y="175" text-anchor="middle" class="small-text">Web UI</text>

  <!-- Connection lines from components to data stores -->
  <line x1="125" y1="195" x2="125" y2="250" stroke="#94a3b8" stroke-width="2" filter="url(#pencil)"/>
  <line x1="255" y1="195" x2="255" y2="250" stroke="#94a3b8" stroke-width="2" filter="url(#pencil)"/>
  <line x1="380" y1="195" x2="380" y2="250" stroke="#94a3b8" stroke-width="2" filter="url(#pencil)"/>

  <!-- Horizontal connector line -->
  <line x1="125" y1="250" x2="380" y2="250" stroke="#94a3b8" stroke-width="2" filter="url(#pencil)"/>
  <line x1="250" y1="250" x2="250" y2="280" stroke="#94a3b8" stroke-width="2" filter="url(#pencil)"/>

  <!-- Data Stores Section -->
  <rect x="50" y="250" width="400" height="50" rx="8"
        fill="#fef3c7" stroke="#f59e0b" stroke-width="1" filter="url(#pencil)"/>

  <!-- PostgreSQL -->
  <rect x="70" y="260" width="90" height="30" rx="8"
        fill="white" stroke="#f59e0b" stroke-width="1" filter="url(#pencil)"/>
  <text x="115" y="280" text-anchor="middle" class="small-text" fill="#92400e">PostgreSQL</text>

  <!-- OpenSearch -->
  <rect x="180" y="260" width="90" height="30" rx="8"
        fill="white" stroke="#f59e0b" stroke-width="1" filter="url(#pencil)"/>
  <text x="225" y="280" text-anchor="middle" class="small-text" fill="#92400e">OpenSearch</text>

  <!-- S3 -->
  <rect x="290" y="260" width="70" height="30" rx="8"
        fill="white" stroke="#f59e0b" stroke-width="1" filter="url(#pencil)"/>
  <text x="325" y="280" text-anchor="middle" class="small-text" fill="#92400e">S3</text>

  <!-- External Services -->
  <text x="490" y="95" class="section-label">EXTERNAL</text>

  <!-- Auth0 -->
  <rect x="480" y="110" width="90" height="40" rx="12"
        fill="white" stroke="#22c55e" stroke-width="2" filter="url(#pencil)"/>
  <text x="525" y="135" text-anchor="middle" class="label-text" fill="#16a34a">Auth0</text>

  <!-- Arrow from Console to Auth0 -->
  <line x1="430" y1="135" x2="475" y2="135" stroke="#22c55e" stroke-width="2" filter="url(#pencil)"/>
  <polygon points="480,135 470,130 470,140" fill="#22c55e" filter="url(#pencil)"/>

  <!-- LLM Providers -->
  <rect x="480" y="170" width="90" height="40" rx="12"
        fill="white" stroke="#8b5cf6" stroke-width="2" filter="url(#pencil)"/>
  <text x="525" y="195" text-anchor="middle" class="label-text" fill="#7c3aed">LLMs</text>

  <!-- Arrow from Diamond to LLMs (for agent testing) -->
  <line x1="180" y1="125" x2="200" y2="125" stroke="#8b5cf6" stroke-width="1" stroke-dasharray="4,2" filter="url(#pencil)"/>

  <!-- Your Agents -->
  <rect x="480" y="230" width="170" height="70" rx="12"
        fill="white" stroke="#DE1616" stroke-width="2" filter="url(#pencil)"/>
  <text x="565" y="255" text-anchor="middle" class="label-text" fill="#DE1616">Your Agents</text>
  <text x="565" y="275" text-anchor="middle" class="small-text">Evaluated by Diamond</text>
  <text x="565" y="290" text-anchor="middle" class="small-text">Protected by Dome</text>

  <!-- Arrow from Diamond to Agents -->
  <line x1="180" y1="135" x2="475" y2="250" stroke="#DE1616" stroke-width="2" filter="url(#pencil)"/>
  <polygon points="480,252 468,248 472,258" fill="#DE1616" filter="url(#pencil)"/>

  <!-- Arrow from Dome to Agents -->
  <line x1="310" y1="135" x2="475" y2="265" stroke="#0247A9" stroke-width="2" filter="url(#pencil)"/>
  <polygon points="480,267 468,260 470,272" fill="#0247A9" filter="url(#pencil)"/>

  <!-- Legend -->
  <text x="50" y="350" class="section-label">LEGEND</text>

  <rect x="50" y="365" width="20" height="12" rx="4" fill="#DE1616" filter="url(#pencil)"/>
  <text x="80" y="375" class="small-text">Evaluation (Diamond)</text>

  <rect x="200" y="365" width="20" height="12" rx="4" fill="#0247A9" filter="url(#pencil)"/>
  <text x="230" y="375" class="small-text">Protection (Dome)</text>

  <rect x="350" y="365" width="20" height="12" rx="4" fill="white" stroke="#f59e0b" stroke-width="1" filter="url(#pencil)"/>
  <text x="380" y="375" class="small-text">Data Stores</text>

  <rect x="480" y="365" width="20" height="12" rx="4" fill="white" stroke="#22c55e" stroke-width="1" filter="url(#pencil)"/>
  <text x="510" y="375" class="small-text">External Services</text>

  <!-- Data flow note -->
  <text x="50" y="410" class="small-text">All data stays within your infrastructure boundary.</text>
  <text x="50" y="425" class="small-text">External connections: Auth0 (authentication), LLM providers (your agents' models).</text>

</svg>
